#!OML:ASF G:\acrobat\cartwheel_test\acrobat_wednesday\Session 1\acrobatwednesday.ASF
:FULLY-SPECIFIED
:DEGREES
96
root 9.57312 15.2078 11.0983 225.375 -35.4123 -154.438
lowerback 25.3123 1.97596 -15.6465
upperback 6.8225 -2.53876 -1.85039
thorax -5.81988 -1.52447 7.63533
lowerneck -20.8652 -4.32104 -15.6089
upperneck 12.2294 -6.36291 24.8108
head 8.75641 -1.80034 10.6301
rclavicle 8.90555e-014 9.25343e-014
rhumerus -30.5759 -43.7082 -0.444215
rradius 33.2673
rwrist 4.26615
rhand -46.092 -22.1585
rfingers 7.12502
rthumb -18.8342 -51.2667
lclavicle 8.90555e-014 9.25343e-014
lhumerus 48.752 41.5426 20.8726
lradius 35.3473
lwrist 53.9137
lhand -48.8561 354.1
lfingers 7.12502
lthumb -21.4908 22.9279
rfemur -30.3112 5.19307 15.5442
rtibia 13.9769
rfoot -23.8916 3.8232
rtoes -0.413234
lfemur -63.1754 23.2315 3.7981
ltibia 41.9748
lfoot 203.636 160.461
ltoes 28.186
97
root 10.0224 15.5011 11.0055 228.366 -37.2477 -157.962
lowerback 25.6974 1.95882 -14.9247
upperback 6.72279 -2.38423 -1.61169
thorax -6.18703 -1.402 7.47526
lowerneck -19.6497 -5.02281 -16.015
upperneck 10.7629 -7.1971 25.4239
head 8.31468 -2.26891 10.7304
rclavicle 9.54166e-015 5.66536e-015
rhumerus -27.999 -42.421 -3.60566
rradius 33.2988
rwrist 4.64425
rhand -46.2672 -20.5003
rfingers 7.12502
rthumb -19.0027 -49.592
lclavicle 9.54166e-015 5.66536e-015
lhumerus 53.9903 42.6164 24.5059
lradius 35.7463
lwrist 48.8767
lhand -46.6677 351.07
lfingers 7.12502
lthumb -19.3878 20.1232
rfemur -33.9499 5.89685 13.4576
rtibia 16.1665
rfoot -23.5896 1.93043
rtoes -3.45684
lfemur -60.4094 19.9812 5.89737
ltibia 33.0239
lfoot 198.571 158.009
ltoes 35.3582
98
root 10.4591 15.7572 10.8992 231.607 -38.6742 -161.454
lowerback 25.5339 2.6226 -13.3405
upperback 7.15098 -1.16621 -2.15186
thorax -5.97403 -0.882081 5.60965
lowerneck -19.6669 -6.45914 -13.8823
upperneck 9.11144 -9.51411 25.5457
head 8.25701 -3.32505 9.90535
rclavicle -1.08139e-013 -3.75703e-014
rhumerus -29.8334 -42.5848 -4.14905
rradius 33.8332
rwrist 5.66753
rhand -46.6728 -19.4626
rfingers 7.12502
rthumb -19.3927 -48.5155
lclavicle -1.08139e-013 -3.75703e-014
lhumerus 62.635 42.8279 29.9509
lradius 36.2782
lwrist 44.9694
lhand -44.0714 348.48
lfingers 7.12502
lthumb -16.8899 17.7654
rfemur -37.49 6.14451 11.1572
rtibia 18.0204
rfoot -23.208 -0.690883
rtoes -4.91056
lfemur -57.1327 15.7444 8.77936
ltibia 24.0554
lfoot 195.947 154.709
ltoes 43.907
99
root 10.885 15.9457 10.7852 234.274 -39.5446 -164.201
lowerback 25.1313 3.18088 -12.3338
upperback 7.75746 -0.131875 -2.12535
thorax -5.30208 -0.469651 4.75978
lowerneck -22.1305 -8.06992 -12.8337
upperneck 8.95963 -11.799 25.4586
head 9.09642 -4.20382 9.25493
rclavicle 6.36111e-014 8.48811e-014
rhumerus -28.3405 -44.4634 -5.94214
rradius 34.0365
rwrist 7.32212
rhand -47.1871 -17.5463
rfingers 7.12502
rthumb -19.8872 -46.5488
lclavicle 6.36111e-014 8.48811e-014
lhumerus 66.7584 43.6997 32.4004
lradius 38.0101
lwrist 43.1781
lhand -43.0551 346.736
lfingers 7.12502
lthumb -15.9114 16.1028
rfemur -40.6087 6.33803 9.18423
rtibia 19.5122
rfoot -22.4327 0.074712
rtoes -3.84806
lfemur -53.7234 11.2518 12.0661
ltibia 17.0944
lfoot 194.958 147.624
ltoes 46.9042
100
root 11.3069 16.0441 10.6752 235.954 -41.5897 -166.9
lowerback 25.0449 2.59435 -10.3104
upperback 7.87689 -0.233543 -1.29211
thorax -5.13524 -0.507089 4.57013
lowerneck -22.0786 -8.82743 -14.0394
upperneck 9.06955 -12.5236 25.7288
head 9.38924 -4.53797 9.45651
rclavicle 0 -6.53008e-014
rhumerus -22.6677 -44.1752 -9.94267
rradius 34.0415
rwrist 7.69069
rhand -47.2498 -15.3079
rfingers 7.12502
rthumb -19.9474 -44.3041
lclavicle 0 -6.53008e-014
lhumerus 62.2073 44.1607 28.2769
lradius 41.3631
lwrist 43.7374
lhand -43.7404 345.437
lfingers 7.12502
lthumb -16.5713 14.7492
rfemur -41.6666 6.06113 8.4626
rtibia 19.869
rfoot -21.9013 1.02639
rtoes -1.69972
lfemur -51.7581 7.96433 13.4792
ltibia 14.428
lfoot 195.695 137.994
ltoes 51.826
101
root 11.705 16.0733 10.5649 237.455 -42.4921 -170.293
lowerback 24.9897 2.2217 -9.36961
upperback 8.00007 -0.391307 -0.62697
thorax -4.95564 -0.587878 4.81361
lowerneck -21.7834 -9.33501 -15.7688
upperneck 9.69604 -13.0041 26.4848
head 9.86391 -4.74643 10.0358
rclavicle 3.18055e-014 2.08724e-014
rhumerus -16.7333 -43.1709 -13.9019
rradius 34.0108
rwrist 7.72288
rhand -46.3716 -14.5323
rfingers 7.12502
rthumb -19.1031 -43.6141
lclavicle 3.18055e-014 2.08724e-014
lhumerus 57.2726 44.2286 24.5027
lradius 44.2682
lwrist 43.9642
lhand -43.884 345.053
lfingers 7.12502
lthumb -16.7095 14.3537
rfemur -41.5726 6.17314 6.59338
rtibia 19.6627
rfoot -21.2952 2.28944
rtoes 0.195045
lfemur -49.8751 6.44459 10.8088
ltibia 14.5478
lfoot 191.735 140.086
ltoes 49.0054
102
root 12.11 16.0342 10.4533 237.883 -43.5442 -173.301
lowerback 25.5181 2.07949 -8.13035
upperback 7.87595 -0.257358 -0.0413376
thorax -5.38732 -0.49137 4.72319
lowerneck -20.8557 -9.54756 -16.1426
upperneck 10.4256 -13.4614 26.5874
head 10.0911 -4.9735 10.109
rclavicle -9.54166e-015 4.85283e-014
rhumerus -12.7433 -41.7746 -17.0591
rradius 34.2483
rwrist 8.52681
rhand -45.6065 -13.8565
rfingers 7.12502
rthumb -18.3671 -43.0094
lclavicle -9.54166e-015 4.85283e-014
lhumerus 54.1384 43.5063 22.1796
lradius 45.8563
lwrist 43.7059
lhand -42.7196 344.881
lfingers 7.12502
lthumb -15.5883 14.2724
rfemur -40.3621 6.68157 5.62377
rtibia 19.0795
rfoot -21.1775 2.96355
rtoes 2.32748
lfemur -47.2854 6.32269 7.23827
ltibia 16.2738
lfoot 188.055 145.054
ltoes 53.8445
103
root 12.5166 15.9376 10.3414 238.696 -44.2559 -176.71
lowerback 25.9984 1.97174 -7.40195
upperback 7.5844 -0.176632 0.518284
thorax -5.96254 -0.408857 4.91179
lowerneck -20.5991 -9.76711 -16.0515
upperneck 11.3641 -13.9541 26.2616
head 10.439 -5.17474 9.91551
rclavicle 1.18476e-013 9.11925e-014
rhumerus -9.442 -40.7464 -19.9392
rradius 34.5645
rwrist 9.85038
rhand -45.2349 -12.4709
rfingers 7.12502
rthumb -18.0097 -41.6571
lclavicle 1.18476e-013 9.11925e-014
lhumerus 51.0053 42.7047 19.5955
lradius 46.5185
lwrist 43.4972
lhand -41.3899 343.756
lfingers 7.12502
lthumb -14.3073 13.2429
rfemur -39.5378 6.70477 4.71707
rtibia 19.0453
rfoot -21.196 3.3396
rtoes 3.1226
lfemur -44.3442 5.1937 3.88898
ltibia 18.2327
lfoot 184.728 148.969
ltoes 53.6106
104
root 12.912 15.791 10.2322 240.768 -44.7738 -181.31
lowerback 26.1408 1.54999 -6.69057
upperback 7.178 -0.46335 0.821746
thorax -6.45233 -0.49426 4.93369
lowerneck -20.4552 -9.94466 -15.8937
upperneck 11.7626 -14.3041 26.0185
head 10.5925 -5.32365 9.73717
rclavicle -1.24837e-013 -1.35174e-013
rhumerus -6.5063 -40.8931 -22.8482
rradius 34.5935
rwrist 11.9244
rhand -44.905 -11.1423
rfingers 7.12502
rthumb -17.6922 -40.3574
lclavicle -1.24837e-013 -1.35174e-013
lhumerus 47.807 41.7602 16.3258
lradius 46.5955
lwrist 43.4501
lhand -40.982 342.777
lfingers 7.12502
lthumb -13.9143 12.2918
rfemur -39.4422 5.22817 3.6739
rtibia 20.0953
rfoot -21.4258 3.0255
rtoes 4.40141
lfemur -41.5836 3.04611 -0.0147241
ltibia 19.9686
lfoot 181.256 151.94
ltoes 50.7137
105
root 13.3045 15.5952 10.1208 243.258 -45.2446 -186.082
lowerback 25.8638 1.01973 -5.81115
upperback 6.74628 -0.814954 1.00253
thorax -6.76226 -0.617407 4.73364
lowerneck -20.1016 -10.0894 -15.8183
upperneck 11.493 -14.5503 26.1217
head 10.4991 -5.45458 9.70047
rclavicle -7.94145e-014 -7.84951e-014
rhumerus -4.04537 -41.2512 -25.461
rradius 34.4067
rwrist 13.3415
rhand -44.7347 -9.98406
rfingers 7.12502
rthumb -17.5284 -39.2139
lclavicle -7.94145e-014 -7.84951e-014
lhumerus 44.9727 40.96 12.9563
lradius 46.3123
lwrist 43.4952
lhand -41.0363 343.363
lfingers 7.12502
lthumb -13.9666 12.874
rfemur -40.209 2.80344 3.20304
rtibia 22.6005
rfoot -21.6591 2.92059
rtoes 6.41754
lfemur -38.6001 2.25201 -4.35076
ltibia 21.3023
lfoot 177.88 155.592
ltoes 49.7253
106
root 13.6884 15.3559 10.0092 245.594 -45.77 -190.486
lowerback 25.3006 0.789526 -5.04794
upperback 6.35604 -0.779367 1.47291
thorax -6.92187 -0.567132 4.79504
lowerneck -19.6117 -10.5201 -15.7421
upperneck 10.9262 -15.0796 26.0201
head 10.319 -5.74076 9.50236
rclavicle 4.37326e-014 3.02153e-014
rhumerus -3.21086 -39.8031 -25.7418
rradius 34.4517
rwrist 11.8854
rhand -44.7552 -9.41992
rfingers 7.12502
rthumb -17.5481 -38.648
lclavicle 4.37326e-014 3.02153e-014
lhumerus 43.7992 40.6563 11.6694
lradius 45.3939
lwrist 42.842
lhand -40.813 343.725
lfingers 7.12502
lthumb -13.7514 13.2507
rfemur -41.9856 -1.36099 4.71927
rtibia 29.5353
rfoot -17.0107 8.77616
rtoes 3.33348
lfemur -34.7779 1.71996 -7.99244
ltibia 21.542
lfoot 174.907 158.377
ltoes 51.1461
107
root 14.0555 15.0869 9.91164 248.018 -46.5146 -194.944
lowerback 24.8232 0.468075 -3.87035
upperback 5.90086 -0.759881 2.08207
thorax -7.19524 -0.527539 4.77807
lowerneck -19.276 -11.1981 -15.6396
upperneck 10.8684 -15.9241 25.4096
head 10.3446 -6.1589 9.05364
rclavicle 5.08889e-014 -2.32578e-014
rhumerus -2.85063 -38.3636 -25.4367
rradius 34.5476
rwrist 10.1728
rhand -43.7763 -9.59965
rfingers 7.12502
rthumb -16.6059 -38.9092
lclavicle 5.08889e-014 -2.32578e-014
lhumerus 43.4761 40.731 11.604
lradius 44.2459
lwrist 42.0568
lhand -40.7033 343.75
lfingers 7.12502
lthumb -13.6457 13.2825
rfemur -43.9679 -4.69126 5.90579
rtibia 37.0959
rfoot -10.7985 14.2771
rtoes -7.53864
lfemur -30.3681 0.179541 -10.7111
ltibia 20.7155
lfoot 172.123 159.339
ltoes 53.6839
108
root 14.4101 14.8035 9.83465 250.469 -47.1784 -199.266
lowerback 24.5049 0.0017155 -2.29964
upperback 5.36071 -0.853231 2.58448
thorax -7.63679 -0.550035 4.45532
lowerneck -18.9567 -11.7864 -15.3928
upperneck 10.8955 -16.6268 24.5067
head 10.308 -6.52231 8.50367
rclavicle -5.725e-014 -4.33351e-014
rhumerus -2.46925 -37.7691 -25.6508
rradius 34.779
rwrist 9.38667
rhand -41.7426 -10.2323
rfingers 7.12502
rthumb -14.6472 -39.6949
lclavicle -5.725e-014 -4.33351e-014
lhumerus 42.916 41.0616 11.3109
lradius 43.4787
lwrist 42.2682
lhand -40.7008 344.104
lfingers 7.12502
lthumb -13.6433 13.6373
rfemur -45.9634 -6.48927 5.8298
rtibia 43.2001
rfoot -8.50328 16.132
rtoes -6.82137
lfemur -25.842 -1.43158 -13.1731
ltibia 19.5057
lfoot 169.444 159.762
ltoes 56.4401
109
root 14.7508 14.52 9.77238 252.614 -47.6868 -202.823
lowerback 24.2148 -0.357601 -0.511375
upperback 4.77802 -0.767673 3.04219
thorax -8.15694 -0.505198 3.90774
lowerneck -18.4394 -12.0015 -14.0483
upperneck 10.0081 -16.6748 22.6054
head 9.54257 -6.67516 7.51879
rclavicle 7.15625e-014 -5.1684e-015
rhumerus -2.31467 -37.0822 -25.6985
rradius 34.8639
rwrist 8.91126
rhand -40.8259 -10.6411
rfingers 7.12502
rthumb -13.7639 -40.1658
lclavicle 7.15625e-014 -5.1684e-015
lhumerus 42.4403 41.7841 11.211
lradius 42.9171
lwrist 42.7079
lhand -40.451 344.207
lfingers 7.12502
lthumb -13.4025 13.756
rfemur -48.5172 -7.80629 5.92861
rtibia 49.4893
rfoot -4.70978 17.4719
rtoes -11.2093
lfemur -21.3586 -2.8298 -15.4804
ltibia 18.1952
lfoot 166.594 160.361
ltoes 61.5286
110
root 15.0696 14.2566 9.71833 254.621 -48.1494 -205.521
lowerback 23.9023 -0.647414 1.60577
upperback 4.08787 -0.510398 3.48954
thorax -8.78974 -0.403795 3.1137
lowerneck -17.7724 -12.2933 -13.8932
upperneck 8.83076 -16.9392 22.5714
head 9.06125 -6.88487 7.41525
rclavicle 3.18055e-014 8.74653e-015
rhumerus -1.90652 -36.8118 -25.9565
rradius 34.718
rwrist 8.41781
rhand -40.735 -10.8036
rfingers 7.12502
rthumb -13.6763 -40.3342
lclavicle 3.18055e-014 8.74653e-015
lhumerus 41.6838 42.6538 10.9027
lradius 42.474
lwrist 42.5774
lhand -40.6058 343.669
lfingers 7.12502
lthumb -13.5517 13.2083
rfemur -51.4953 -8.70479 6.39273
rtibia 55.1521
rfoot -1.0764 18.1698
rtoes -14.5689
lfemur -17.4686 -3.12812 -17.7128
ltibia 17.19
lfoot 164.834 161.889
ltoes 60.5607
